<svg width="19" height="19" viewBox="0 0 19 19" fill="none" xmlns="http://www.w3.org/2000/svg">
<g clip-path="url(#clip0_164_4)">
<path d="M10.6875 0H13.0388C13.2098 0.849063 13.68 1.92019 14.5053 2.983C15.3128 4.02444 16.3839 4.75 17.8125 4.75V7.125C15.7308 7.125 14.1669 6.15838 13.0625 4.95306V13.0625C13.0625 14.2368 12.7143 15.3848 12.0619 16.3612C11.4094 17.3376 10.4821 18.0986 9.39719 18.548C8.31225 18.9974 7.11842 19.115 5.96665 18.8859C4.81489 18.6568 3.75693 18.0913 2.92656 17.2609C2.09618 16.4306 1.53069 15.3726 1.30159 14.2209C1.07249 13.0691 1.19007 11.8753 1.63947 10.7903C2.08886 9.70538 2.84989 8.77807 3.8263 8.12565C4.80272 7.47323 5.95068 7.125 7.125 7.125V9.5C6.42041 9.5 5.73163 9.70894 5.14578 10.1004C4.55993 10.4918 4.10332 11.0482 3.83368 11.6992C3.56404 12.3502 3.4935 13.0665 3.63096 13.7575C3.76842 14.4486 4.10771 15.0833 4.60594 15.5816C5.10416 16.0798 5.73894 16.4191 6.42999 16.5565C7.12105 16.694 7.83735 16.6235 8.48831 16.3538C9.13928 16.0842 9.69566 15.6276 10.0871 15.0417C10.4786 14.4559 10.6875 13.7671 10.6875 13.0625V0Z" fill="white"/>
</g>
<defs>
<clipPath id="clip0_164_4">
<rect width="19" height="19" fill="white"/>
</clipPath>
</defs>
</svg>
